<?xml version="1.0" encoding="UTF-8"?>
<svg id="Layer_2" data-name="Layer 2" xmlns="http://www.w3.org/2000/svg" xmlns:xlink="http://www.w3.org/1999/xlink" viewBox="0 0 223.91 62.19">
  <defs>
    <style>
      .cls-1 {
        letter-spacing: -.01em;
      }

      .cls-2 {
        fill: url(#linear-gradient);
      }

      .cls-3 {
        font-family: ArialRoundedMTBold, 'Arial Rounded MT Bold';
        font-size: 14.41px;
      }

      .cls-4 {
        fill: #231f20;
      }
    </style>
    <linearGradient id="linear-gradient" x1="63.53" y1="46.01" x2="63.53" y2="0" gradientUnits="userSpaceOnUse">
      <stop offset="0" stop-color="#55001e"/>
      <stop offset="1" stop-color="#be1e2d"/>
    </linearGradient>
  </defs>
  <g id="Layer_1-2" data-name="Layer 1">
    <g>
      <path class="cls-4" d="m67.76,34.37h-22.66l-12.36,11.64,49.42.06c-5.06-1.86-8.46-5.39-14.41-11.7Z"/>
      <path class="cls-2" d="m127.06,34.37h-21.02c-5.27-.07-9.22-1.66-12.19-4.38l-25.15-24.92c-1.45-1.44-3.21-2.65-5.29-3.62-2.08-.97-4.66-1.45-7.76-1.45s-5.9.52-8.01,1.56c-2.11,1.04-3.85,2.21-5.24,3.52L0,46.01h24.22l31.04-30.04,8.89,8.98,14.33,14.01c5.08,4.87,9.97,6.65,17.1,6.99l2.8.06h24.04l4.65-11.64Z"/>
      <path class="cls-4" d="m207.21,6.23c-.92-2.12-2.42-3.69-4.5-4.7-2.08-1.01-4.4-1.52-6.97-1.52-2.7,0-4.96.44-6.77,1.32-1.81.88-3.31,2.04-4.5,3.48l-10.58,12.86c-1.45,1.76-2.72,3.29-3.81,4.6-1.09,1.31-2.04,2.49-2.87,3.55-.82,1.06-1.55,2.01-2.17,2.84-.63.84-1.2,1.66-1.73,2.47-.59-.81-1.2-1.65-1.83-2.5-.63-.86-1.35-1.8-2.17-2.84-.82-1.04-1.78-2.22-2.87-3.55-1.09-1.33-2.36-2.88-3.81-4.64l-10.58-12.79c-1.19-1.49-2.69-2.66-4.5-3.52-1.81-.86-4.04-1.29-6.67-1.29s-4.91.51-7.02,1.52c-2.11,1.02-3.62,2.58-4.55,4.7l-11.12,25.88h19.58l.73-1.86c.99-2.57,1.84-4.84,2.57-6.8.72-1.96,1.35-3.85,1.88-5.65.53.77,1.07,1.56,1.63,2.37.56.81,1.22,1.7,1.98,2.67.76.97,1.6,2.06,2.52,3.28.92,1.22,1.98,2.59,3.16,4.13l8.9,11.44c.86,1.13,1.73,2.02,2.62,2.67.89.65,1.79,1.16,2.72,1.52.92.36,1.91.6,2.97.71,1.05.11,2.21.17,3.46.17s2.4-.06,3.46-.17c1.05-.11,2.04-.35,2.97-.71.92-.36,1.83-.87,2.72-1.52.89-.65,1.76-1.54,2.62-2.67l8.9-11.37c2.24-2.93,4.05-5.36,5.44-7.27,1.38-1.92,2.63-3.66,3.76-5.24.53,1.85,1.15,3.74,1.88,5.68.72,1.94,1.61,4.2,2.67,6.77l6.23,15.77h20.36l-16.7-39.79Z"/>
    </g>
    <text class="cls-3" transform="translate(0 59.15) scale(1.87 1)"><tspan x="0" y="0">Arber </tspan><tspan x="44.15" y="0">Mekriz</tspan><tspan class="cls-1" x="90.7" y="0">v</tspan><tspan x="98.31" y="0">ani</tspan></text>
  </g>
</svg>